<mxfile host="app.diagrams.net" modified="2023-03-17T17:11:19.890Z" agent="5.0 (Windows NT 10.0; Win64; x64) AppleWebKit/537.36 (KHTML, like Gecko) Chrome/111.0.0.0 Safari/537.36 Edg/111.0.1661.41" etag="YLs02mlsQffvF5kCmosg" version="21.0.2" type="github">
  <diagram id="R2lEEEUBdFMjLlhIrx00" name="Page-1">
    <mxGraphModel dx="2935" dy="1736" grid="1" gridSize="10" guides="1" tooltips="1" connect="1" arrows="1" fold="1" page="1" pageScale="1" pageWidth="850" pageHeight="1100" math="0" shadow="0" extFonts="Permanent Marker^https://fonts.googleapis.com/css?family=Permanent+Marker">
      <root>
        <mxCell id="0" />
        <mxCell id="1" parent="0" />
        <mxCell id="YpXeeTf7qJ5zj5Ovl2NS-48" value="" style="edgeStyle=orthogonalEdgeStyle;rounded=0;orthogonalLoop=1;jettySize=auto;html=1;endArrow=none;endFill=0;" edge="1" parent="1" source="YpXeeTf7qJ5zj5Ovl2NS-2" target="YpXeeTf7qJ5zj5Ovl2NS-47">
          <mxGeometry relative="1" as="geometry" />
        </mxCell>
        <mxCell id="YpXeeTf7qJ5zj5Ovl2NS-55" value="" style="edgeStyle=orthogonalEdgeStyle;rounded=0;orthogonalLoop=1;jettySize=auto;html=1;endArrow=none;endFill=0;" edge="1" parent="1" source="YpXeeTf7qJ5zj5Ovl2NS-2" target="YpXeeTf7qJ5zj5Ovl2NS-54">
          <mxGeometry relative="1" as="geometry" />
        </mxCell>
        <mxCell id="YpXeeTf7qJ5zj5Ovl2NS-58" style="edgeStyle=orthogonalEdgeStyle;rounded=0;orthogonalLoop=1;jettySize=auto;html=1;exitX=0.75;exitY=1;exitDx=0;exitDy=0;entryX=0;entryY=0.5;entryDx=0;entryDy=0;endArrow=none;endFill=0;" edge="1" parent="1" source="YpXeeTf7qJ5zj5Ovl2NS-2" target="YpXeeTf7qJ5zj5Ovl2NS-57">
          <mxGeometry relative="1" as="geometry" />
        </mxCell>
        <mxCell id="YpXeeTf7qJ5zj5Ovl2NS-68" style="edgeStyle=orthogonalEdgeStyle;rounded=0;orthogonalLoop=1;jettySize=auto;html=1;exitX=0.75;exitY=0;exitDx=0;exitDy=0;entryX=0.5;entryY=1;entryDx=0;entryDy=0;endArrow=none;endFill=0;" edge="1" parent="1" source="YpXeeTf7qJ5zj5Ovl2NS-2" target="YpXeeTf7qJ5zj5Ovl2NS-67">
          <mxGeometry relative="1" as="geometry" />
        </mxCell>
        <mxCell id="CcATFbNi5NQpu170G1Sn-9" style="edgeStyle=orthogonalEdgeStyle;rounded=0;orthogonalLoop=1;jettySize=auto;html=1;exitX=0;exitY=1;exitDx=0;exitDy=0;entryX=1;entryY=0.5;entryDx=0;entryDy=0;endArrow=none;endFill=0;" edge="1" parent="1" source="YpXeeTf7qJ5zj5Ovl2NS-2" target="CcATFbNi5NQpu170G1Sn-8">
          <mxGeometry relative="1" as="geometry" />
        </mxCell>
        <mxCell id="CcATFbNi5NQpu170G1Sn-11" style="edgeStyle=orthogonalEdgeStyle;rounded=0;orthogonalLoop=1;jettySize=auto;html=1;exitX=0.25;exitY=1;exitDx=0;exitDy=0;entryX=1;entryY=0.5;entryDx=0;entryDy=0;endArrow=none;endFill=0;" edge="1" parent="1" source="YpXeeTf7qJ5zj5Ovl2NS-2" target="CcATFbNi5NQpu170G1Sn-10">
          <mxGeometry relative="1" as="geometry" />
        </mxCell>
        <mxCell id="YpXeeTf7qJ5zj5Ovl2NS-2" value="User" style="rounded=0;whiteSpace=wrap;html=1;fontStyle=1" vertex="1" parent="1">
          <mxGeometry x="90" y="220" width="120" height="60" as="geometry" />
        </mxCell>
        <mxCell id="CcATFbNi5NQpu170G1Sn-25" style="edgeStyle=orthogonalEdgeStyle;rounded=0;orthogonalLoop=1;jettySize=auto;html=1;exitX=1;exitY=0;exitDx=0;exitDy=0;endArrow=none;endFill=0;" edge="1" parent="1" source="YpXeeTf7qJ5zj5Ovl2NS-3" target="CcATFbNi5NQpu170G1Sn-21">
          <mxGeometry relative="1" as="geometry" />
        </mxCell>
        <mxCell id="CcATFbNi5NQpu170G1Sn-26" style="edgeStyle=orthogonalEdgeStyle;rounded=0;orthogonalLoop=1;jettySize=auto;html=1;exitX=1;exitY=1;exitDx=0;exitDy=0;entryX=0;entryY=0.5;entryDx=0;entryDy=0;endArrow=none;endFill=0;" edge="1" parent="1" source="YpXeeTf7qJ5zj5Ovl2NS-3" target="CcATFbNi5NQpu170G1Sn-19">
          <mxGeometry relative="1" as="geometry" />
        </mxCell>
        <mxCell id="YpXeeTf7qJ5zj5Ovl2NS-3" value="&lt;meta charset=&quot;utf-8&quot;&gt;&lt;b id=&quot;docs-internal-guid-0319a5cd-7fff-a8cc-95c2-bb4110cfee90&quot; style=&quot;font-weight:normal;&quot;&gt;&lt;span style=&quot;font-size: 12pt; font-family: Arial; color: rgb(0, 0, 0); background-color: transparent; font-weight: 700; font-style: normal; font-variant: normal; text-decoration: none; vertical-align: baseline;&quot;&gt;Ticket&lt;/span&gt;&lt;/b&gt;" style="rounded=0;whiteSpace=wrap;html=1;" vertex="1" parent="1">
          <mxGeometry x="30" y="-120" width="120" height="60" as="geometry" />
        </mxCell>
        <mxCell id="CcATFbNi5NQpu170G1Sn-56" style="edgeStyle=orthogonalEdgeStyle;rounded=0;orthogonalLoop=1;jettySize=auto;html=1;entryX=0.5;entryY=0;entryDx=0;entryDy=0;endArrow=none;endFill=0;" edge="1" parent="1" source="YpXeeTf7qJ5zj5Ovl2NS-4" target="CcATFbNi5NQpu170G1Sn-55">
          <mxGeometry relative="1" as="geometry" />
        </mxCell>
        <mxCell id="YpXeeTf7qJ5zj5Ovl2NS-4" value="&lt;meta charset=&quot;utf-8&quot;&gt;&lt;b id=&quot;docs-internal-guid-718b6a08-7fff-b9a7-0453-49510cfb1dfd&quot; style=&quot;font-weight:normal;&quot;&gt;&lt;span style=&quot;font-size: 12pt; font-family: Arial; color: rgb(0, 0, 0); background-color: transparent; font-weight: 700; font-style: normal; font-variant: normal; text-decoration: none; vertical-align: baseline;&quot;&gt;Textbook&lt;/span&gt;&lt;/b&gt;" style="rounded=0;whiteSpace=wrap;html=1;" vertex="1" parent="1">
          <mxGeometry x="-860" y="128" width="120" height="60" as="geometry" />
        </mxCell>
        <mxCell id="YpXeeTf7qJ5zj5Ovl2NS-78" value="" style="edgeStyle=orthogonalEdgeStyle;rounded=0;orthogonalLoop=1;jettySize=auto;html=1;endArrow=none;endFill=0;" edge="1" parent="1" source="YpXeeTf7qJ5zj5Ovl2NS-5" target="YpXeeTf7qJ5zj5Ovl2NS-77">
          <mxGeometry relative="1" as="geometry" />
        </mxCell>
        <mxCell id="CcATFbNi5NQpu170G1Sn-7" style="edgeStyle=orthogonalEdgeStyle;rounded=0;orthogonalLoop=1;jettySize=auto;html=1;exitX=1;exitY=0.5;exitDx=0;exitDy=0;entryX=0.5;entryY=1;entryDx=0;entryDy=0;endArrow=none;endFill=0;" edge="1" parent="1" source="YpXeeTf7qJ5zj5Ovl2NS-5" target="CcATFbNi5NQpu170G1Sn-6">
          <mxGeometry relative="1" as="geometry" />
        </mxCell>
        <mxCell id="YpXeeTf7qJ5zj5Ovl2NS-5" value="&lt;b id=&quot;docs-internal-guid-7c196727-7fff-cf44-8b81-c02ef0bab3d8&quot; style=&quot;font-weight:normal;&quot;&gt;&lt;span style=&quot;font-size: 12pt; font-family: Arial; color: rgb(0, 0, 0); background-color: transparent; font-weight: 700; font-style: normal; font-variant: normal; text-decoration: none; vertical-align: baseline;&quot;&gt;Community_Post&lt;/span&gt;&lt;/b&gt;" style="rounded=0;whiteSpace=wrap;html=1;" vertex="1" parent="1">
          <mxGeometry x="600" y="320" width="180" height="50" as="geometry" />
        </mxCell>
        <mxCell id="YpXeeTf7qJ5zj5Ovl2NS-88" style="edgeStyle=orthogonalEdgeStyle;rounded=0;orthogonalLoop=1;jettySize=auto;html=1;shape=link;exitX=0.5;exitY=0;exitDx=0;exitDy=0;" edge="1" parent="1" source="YpXeeTf7qJ5zj5Ovl2NS-89" target="YpXeeTf7qJ5zj5Ovl2NS-86">
          <mxGeometry relative="1" as="geometry">
            <mxPoint x="-970" y="109" as="sourcePoint" />
          </mxGeometry>
        </mxCell>
        <mxCell id="YpXeeTf7qJ5zj5Ovl2NS-81" style="edgeStyle=orthogonalEdgeStyle;rounded=0;orthogonalLoop=1;jettySize=auto;html=1;exitX=0.5;exitY=0;exitDx=0;exitDy=0;entryX=0.5;entryY=1;entryDx=0;entryDy=0;endArrow=none;endFill=0;" edge="1" parent="1" source="YpXeeTf7qJ5zj5Ovl2NS-12" target="YpXeeTf7qJ5zj5Ovl2NS-80">
          <mxGeometry relative="1" as="geometry" />
        </mxCell>
        <mxCell id="CcATFbNi5NQpu170G1Sn-46" style="edgeStyle=orthogonalEdgeStyle;rounded=0;orthogonalLoop=1;jettySize=auto;html=1;exitX=1;exitY=0;exitDx=0;exitDy=0;entryX=0.5;entryY=1;entryDx=0;entryDy=0;endArrow=none;endFill=0;" edge="1" parent="1" source="YpXeeTf7qJ5zj5Ovl2NS-12" target="CcATFbNi5NQpu170G1Sn-44">
          <mxGeometry relative="1" as="geometry" />
        </mxCell>
        <mxCell id="CcATFbNi5NQpu170G1Sn-50" style="edgeStyle=orthogonalEdgeStyle;rounded=0;orthogonalLoop=1;jettySize=auto;html=1;exitX=1;exitY=0;exitDx=0;exitDy=0;endArrow=none;endFill=0;" edge="1" parent="1" source="YpXeeTf7qJ5zj5Ovl2NS-12" target="CcATFbNi5NQpu170G1Sn-49">
          <mxGeometry relative="1" as="geometry" />
        </mxCell>
        <mxCell id="CcATFbNi5NQpu170G1Sn-59" style="edgeStyle=orthogonalEdgeStyle;rounded=0;orthogonalLoop=1;jettySize=auto;html=1;exitX=1;exitY=0;exitDx=0;exitDy=0;entryX=0.5;entryY=1;entryDx=0;entryDy=0;endArrow=none;endFill=0;" edge="1" parent="1" source="YpXeeTf7qJ5zj5Ovl2NS-12" target="CcATFbNi5NQpu170G1Sn-57">
          <mxGeometry relative="1" as="geometry" />
        </mxCell>
        <mxCell id="YpXeeTf7qJ5zj5Ovl2NS-12" value="&lt;b style=&quot;border-color: var(--border-color); color: rgb(0, 0, 0); font-family: Arial; font-size: 16px; font-style: normal; font-variant-ligatures: normal; font-variant-caps: normal; letter-spacing: normal; orphans: 2; text-align: center; text-indent: 0px; text-transform: none; widows: 2; word-spacing: 0px; -webkit-text-stroke-width: 0px; background-color: rgb(251, 251, 251); text-decoration-thickness: initial; text-decoration-style: initial; text-decoration-color: initial;&quot;&gt;Resource&lt;/b&gt;" style="rounded=0;whiteSpace=wrap;html=1;" vertex="1" parent="1">
          <mxGeometry x="-640" y="-2" width="120" height="60" as="geometry" />
        </mxCell>
        <mxCell id="CcATFbNi5NQpu170G1Sn-54" style="edgeStyle=orthogonalEdgeStyle;rounded=0;orthogonalLoop=1;jettySize=auto;html=1;entryX=0.5;entryY=1;entryDx=0;entryDy=0;endArrow=none;endFill=0;" edge="1" parent="1" source="YpXeeTf7qJ5zj5Ovl2NS-16" target="CcATFbNi5NQpu170G1Sn-53">
          <mxGeometry relative="1" as="geometry" />
        </mxCell>
        <mxCell id="YpXeeTf7qJ5zj5Ovl2NS-16" value="&lt;font face=&quot;Arial&quot;&gt;&lt;span style=&quot;font-size: 16px;&quot;&gt;&lt;b&gt;Research_Paper&lt;/b&gt;&lt;/span&gt;&lt;/font&gt;" style="rounded=0;whiteSpace=wrap;html=1;" vertex="1" parent="1">
          <mxGeometry x="-880" y="-110" width="140" height="60" as="geometry" />
        </mxCell>
        <mxCell id="YpXeeTf7qJ5zj5Ovl2NS-23" style="edgeStyle=orthogonalEdgeStyle;rounded=0;orthogonalLoop=1;jettySize=auto;html=1;entryX=0;entryY=0.5;entryDx=0;entryDy=0;exitX=1;exitY=0.5;exitDx=0;exitDy=0;shape=link;" edge="1" parent="1" source="YpXeeTf7qJ5zj5Ovl2NS-74" target="YpXeeTf7qJ5zj5Ovl2NS-45">
          <mxGeometry relative="1" as="geometry">
            <mxPoint x="460" y="600" as="sourcePoint" />
            <mxPoint x="640" y="610" as="targetPoint" />
          </mxGeometry>
        </mxCell>
        <mxCell id="YpXeeTf7qJ5zj5Ovl2NS-24" style="edgeStyle=orthogonalEdgeStyle;rounded=0;orthogonalLoop=1;jettySize=auto;html=1;exitX=0;exitY=0.5;exitDx=0;exitDy=0;entryX=0.5;entryY=1;entryDx=0;entryDy=0;endArrow=none;endFill=0;" edge="1" parent="1" source="YpXeeTf7qJ5zj5Ovl2NS-74" target="YpXeeTf7qJ5zj5Ovl2NS-2">
          <mxGeometry relative="1" as="geometry">
            <mxPoint x="380" y="600" as="sourcePoint" />
          </mxGeometry>
        </mxCell>
        <mxCell id="YpXeeTf7qJ5zj5Ovl2NS-29" value="Vote_ID" style="ellipse;whiteSpace=wrap;html=1;" vertex="1" parent="1">
          <mxGeometry x="760" y="680" width="60" height="60" as="geometry" />
        </mxCell>
        <mxCell id="YpXeeTf7qJ5zj5Ovl2NS-38" style="edgeStyle=orthogonalEdgeStyle;rounded=0;orthogonalLoop=1;jettySize=auto;html=1;exitX=1;exitY=0.5;exitDx=0;exitDy=0;entryX=0.5;entryY=0;entryDx=0;entryDy=0;endArrow=none;endFill=0;" edge="1" parent="1" source="YpXeeTf7qJ5zj5Ovl2NS-45" target="YpXeeTf7qJ5zj5Ovl2NS-29">
          <mxGeometry relative="1" as="geometry">
            <mxPoint x="750" y="600" as="sourcePoint" />
          </mxGeometry>
        </mxCell>
        <mxCell id="YpXeeTf7qJ5zj5Ovl2NS-51" style="edgeStyle=orthogonalEdgeStyle;rounded=0;orthogonalLoop=1;jettySize=auto;html=1;shape=link;" edge="1" parent="1" source="YpXeeTf7qJ5zj5Ovl2NS-31" target="YpXeeTf7qJ5zj5Ovl2NS-45">
          <mxGeometry relative="1" as="geometry" />
        </mxCell>
        <mxCell id="YpXeeTf7qJ5zj5Ovl2NS-52" style="edgeStyle=orthogonalEdgeStyle;rounded=0;orthogonalLoop=1;jettySize=auto;html=1;exitX=0.5;exitY=0;exitDx=0;exitDy=0;endArrow=none;endFill=0;" edge="1" parent="1" source="YpXeeTf7qJ5zj5Ovl2NS-31" target="YpXeeTf7qJ5zj5Ovl2NS-5">
          <mxGeometry relative="1" as="geometry" />
        </mxCell>
        <mxCell id="YpXeeTf7qJ5zj5Ovl2NS-31" value="Has" style="shape=rhombus;double=1;perimeter=rhombusPerimeter;whiteSpace=wrap;html=1;align=center;" vertex="1" parent="1">
          <mxGeometry x="635" y="430" width="110" height="80" as="geometry" />
        </mxCell>
        <mxCell id="YpXeeTf7qJ5zj5Ovl2NS-32" value="" style="endArrow=none;dashed=1;html=1;dashPattern=1 3;strokeWidth=2;rounded=0;" edge="1" parent="1">
          <mxGeometry width="50" height="50" relative="1" as="geometry">
            <mxPoint x="780" y="720" as="sourcePoint" />
            <mxPoint x="820" y="720" as="targetPoint" />
          </mxGeometry>
        </mxCell>
        <mxCell id="YpXeeTf7qJ5zj5Ovl2NS-36" value="Vote_type" style="ellipse;whiteSpace=wrap;html=1;" vertex="1" parent="1">
          <mxGeometry x="660" y="680" width="60" height="60" as="geometry" />
        </mxCell>
        <mxCell id="YpXeeTf7qJ5zj5Ovl2NS-46" style="edgeStyle=orthogonalEdgeStyle;rounded=0;orthogonalLoop=1;jettySize=auto;html=1;exitX=0.5;exitY=1;exitDx=0;exitDy=0;entryX=0.5;entryY=0;entryDx=0;entryDy=0;endArrow=none;endFill=0;" edge="1" parent="1" source="YpXeeTf7qJ5zj5Ovl2NS-45" target="YpXeeTf7qJ5zj5Ovl2NS-36">
          <mxGeometry relative="1" as="geometry" />
        </mxCell>
        <mxCell id="YpXeeTf7qJ5zj5Ovl2NS-45" value="Vote" style="shape=ext;margin=3;double=1;whiteSpace=wrap;html=1;align=center;" vertex="1" parent="1">
          <mxGeometry x="640" y="580" width="100" height="40" as="geometry" />
        </mxCell>
        <mxCell id="YpXeeTf7qJ5zj5Ovl2NS-47" value="&lt;u&gt;User_ID&lt;/u&gt;" style="ellipse;whiteSpace=wrap;html=1;rounded=0;" vertex="1" parent="1">
          <mxGeometry x="345" y="120" width="70" height="50" as="geometry" />
        </mxCell>
        <mxCell id="YpXeeTf7qJ5zj5Ovl2NS-54" value="Name" style="ellipse;whiteSpace=wrap;html=1;rounded=0;" vertex="1" parent="1">
          <mxGeometry x="110" y="100" width="80" height="50" as="geometry" />
        </mxCell>
        <mxCell id="YpXeeTf7qJ5zj5Ovl2NS-57" value="Google_Scholar_Account" style="ellipse;html=1;rounded=0;whiteSpace=wrap;" vertex="1" parent="1">
          <mxGeometry x="250" y="300" width="165" height="55" as="geometry" />
        </mxCell>
        <mxCell id="YpXeeTf7qJ5zj5Ovl2NS-67" value="&lt;span style=&quot;color: rgb(0, 0, 0); font-family: Helvetica; font-size: 12px; font-style: normal; font-variant-ligatures: normal; font-variant-caps: normal; font-weight: 400; letter-spacing: normal; orphans: 2; text-align: center; text-indent: 0px; text-transform: none; widows: 2; word-spacing: 0px; -webkit-text-stroke-width: 0px; background-color: rgb(251, 251, 251); text-decoration-thickness: initial; text-decoration-style: initial; text-decoration-color: initial; float: none; display: inline !important;&quot;&gt;Research_Interests&lt;/span&gt;" style="ellipse;shape=doubleEllipse;whiteSpace=wrap;html=1;" vertex="1" parent="1">
          <mxGeometry x="210" y="80" width="125" height="70" as="geometry" />
        </mxCell>
        <mxCell id="YpXeeTf7qJ5zj5Ovl2NS-74" value="Can" style="shape=rhombus;double=1;perimeter=rhombusPerimeter;whiteSpace=wrap;html=1;align=center;" vertex="1" parent="1">
          <mxGeometry x="385" y="560" width="110" height="80" as="geometry" />
        </mxCell>
        <mxCell id="YpXeeTf7qJ5zj5Ovl2NS-77" value="Content" style="ellipse;whiteSpace=wrap;html=1;rounded=0;" vertex="1" parent="1">
          <mxGeometry x="650" y="200" width="80" height="55" as="geometry" />
        </mxCell>
        <mxCell id="YpXeeTf7qJ5zj5Ovl2NS-82" style="edgeStyle=orthogonalEdgeStyle;rounded=0;orthogonalLoop=1;jettySize=auto;html=1;exitX=0;exitY=0.5;exitDx=0;exitDy=0;entryX=1;entryY=0.5;entryDx=0;entryDy=0;endArrow=none;endFill=0;" edge="1" parent="1" source="YpXeeTf7qJ5zj5Ovl2NS-80" target="YpXeeTf7qJ5zj5Ovl2NS-16">
          <mxGeometry relative="1" as="geometry" />
        </mxCell>
        <mxCell id="YpXeeTf7qJ5zj5Ovl2NS-80" value="Is" style="rhombus;whiteSpace=wrap;html=1;" vertex="1" parent="1">
          <mxGeometry x="-620" y="-120" width="80" height="80" as="geometry" />
        </mxCell>
        <mxCell id="YpXeeTf7qJ5zj5Ovl2NS-84" style="edgeStyle=orthogonalEdgeStyle;rounded=0;orthogonalLoop=1;jettySize=auto;html=1;entryX=1;entryY=0.5;entryDx=0;entryDy=0;endArrow=none;endFill=0;" edge="1" parent="1" source="YpXeeTf7qJ5zj5Ovl2NS-83" target="YpXeeTf7qJ5zj5Ovl2NS-4">
          <mxGeometry relative="1" as="geometry" />
        </mxCell>
        <mxCell id="YpXeeTf7qJ5zj5Ovl2NS-85" style="edgeStyle=orthogonalEdgeStyle;rounded=0;orthogonalLoop=1;jettySize=auto;html=1;exitX=0.5;exitY=0;exitDx=0;exitDy=0;entryX=0.5;entryY=1;entryDx=0;entryDy=0;endArrow=none;endFill=0;" edge="1" parent="1" source="YpXeeTf7qJ5zj5Ovl2NS-83" target="YpXeeTf7qJ5zj5Ovl2NS-12">
          <mxGeometry relative="1" as="geometry" />
        </mxCell>
        <mxCell id="YpXeeTf7qJ5zj5Ovl2NS-83" value="Is" style="rhombus;whiteSpace=wrap;html=1;" vertex="1" parent="1">
          <mxGeometry x="-620" y="118" width="80" height="80" as="geometry" />
        </mxCell>
        <mxCell id="YpXeeTf7qJ5zj5Ovl2NS-108" style="edgeStyle=orthogonalEdgeStyle;rounded=0;orthogonalLoop=1;jettySize=auto;html=1;exitX=1;exitY=0.5;exitDx=0;exitDy=0;entryX=0;entryY=0.5;entryDx=0;entryDy=0;endArrow=none;endFill=0;" edge="1" parent="1" source="YpXeeTf7qJ5zj5Ovl2NS-86" target="YpXeeTf7qJ5zj5Ovl2NS-12">
          <mxGeometry relative="1" as="geometry" />
        </mxCell>
        <mxCell id="YpXeeTf7qJ5zj5Ovl2NS-86" value="Has" style="shape=rhombus;double=1;perimeter=rhombusPerimeter;whiteSpace=wrap;html=1;align=center;" vertex="1" parent="1">
          <mxGeometry x="-1010" y="-12" width="80" height="80" as="geometry" />
        </mxCell>
        <mxCell id="CcATFbNi5NQpu170G1Sn-65" style="edgeStyle=orthogonalEdgeStyle;rounded=0;orthogonalLoop=1;jettySize=auto;html=1;exitX=0.5;exitY=1;exitDx=0;exitDy=0;endArrow=none;endFill=0;" edge="1" parent="1" source="YpXeeTf7qJ5zj5Ovl2NS-89" target="CcATFbNi5NQpu170G1Sn-63">
          <mxGeometry relative="1" as="geometry" />
        </mxCell>
        <mxCell id="YpXeeTf7qJ5zj5Ovl2NS-89" value="Rating" style="shape=ext;margin=3;double=1;whiteSpace=wrap;html=1;align=center;rounded=0;" vertex="1" parent="1">
          <mxGeometry x="-1020" y="101" width="100" height="40" as="geometry" />
        </mxCell>
        <mxCell id="YpXeeTf7qJ5zj5Ovl2NS-97" style="edgeStyle=orthogonalEdgeStyle;rounded=0;orthogonalLoop=1;jettySize=auto;html=1;exitX=0.5;exitY=1;exitDx=0;exitDy=0;endArrow=none;endFill=0;" edge="1" parent="1" source="YpXeeTf7qJ5zj5Ovl2NS-91" target="YpXeeTf7qJ5zj5Ovl2NS-96">
          <mxGeometry relative="1" as="geometry" />
        </mxCell>
        <mxCell id="CcATFbNi5NQpu170G1Sn-33" style="edgeStyle=orthogonalEdgeStyle;rounded=0;orthogonalLoop=1;jettySize=auto;html=1;exitX=0;exitY=0.5;exitDx=0;exitDy=0;entryX=1;entryY=0.5;entryDx=0;entryDy=0;endArrow=none;endFill=0;" edge="1" parent="1" source="YpXeeTf7qJ5zj5Ovl2NS-91" target="CcATFbNi5NQpu170G1Sn-32">
          <mxGeometry relative="1" as="geometry" />
        </mxCell>
        <mxCell id="CcATFbNi5NQpu170G1Sn-36" style="edgeStyle=orthogonalEdgeStyle;rounded=0;orthogonalLoop=1;jettySize=auto;html=1;exitX=0;exitY=1;exitDx=0;exitDy=0;entryX=1;entryY=0.5;entryDx=0;entryDy=0;endArrow=none;endFill=0;" edge="1" parent="1" source="YpXeeTf7qJ5zj5Ovl2NS-91" target="CcATFbNi5NQpu170G1Sn-35">
          <mxGeometry relative="1" as="geometry" />
        </mxCell>
        <mxCell id="CcATFbNi5NQpu170G1Sn-39" style="edgeStyle=orthogonalEdgeStyle;rounded=0;orthogonalLoop=1;jettySize=auto;html=1;exitX=0;exitY=0;exitDx=0;exitDy=0;entryX=1;entryY=0.5;entryDx=0;entryDy=0;endArrow=none;endFill=0;" edge="1" parent="1" source="YpXeeTf7qJ5zj5Ovl2NS-91" target="CcATFbNi5NQpu170G1Sn-38">
          <mxGeometry relative="1" as="geometry" />
        </mxCell>
        <mxCell id="YpXeeTf7qJ5zj5Ovl2NS-91" value="&lt;b style=&quot;border-color: var(--border-color); font-family: Arial; font-size: 16px;&quot;&gt;Resource_Post&lt;/b&gt;" style="shape=ext;margin=3;double=1;whiteSpace=wrap;html=1;align=center;rounded=0;" vertex="1" parent="1">
          <mxGeometry x="-320" y="133" width="140" height="50" as="geometry" />
        </mxCell>
        <mxCell id="YpXeeTf7qJ5zj5Ovl2NS-93" style="edgeStyle=orthogonalEdgeStyle;rounded=0;orthogonalLoop=1;jettySize=auto;html=1;exitX=0.5;exitY=1;exitDx=0;exitDy=0;shape=link;" edge="1" parent="1" source="YpXeeTf7qJ5zj5Ovl2NS-92" target="YpXeeTf7qJ5zj5Ovl2NS-91">
          <mxGeometry relative="1" as="geometry" />
        </mxCell>
        <mxCell id="YpXeeTf7qJ5zj5Ovl2NS-94" style="edgeStyle=orthogonalEdgeStyle;rounded=0;orthogonalLoop=1;jettySize=auto;html=1;exitX=0;exitY=0.5;exitDx=0;exitDy=0;entryX=1;entryY=0.5;entryDx=0;entryDy=0;endArrow=none;endFill=0;" edge="1" parent="1" source="YpXeeTf7qJ5zj5Ovl2NS-92" target="YpXeeTf7qJ5zj5Ovl2NS-12">
          <mxGeometry relative="1" as="geometry" />
        </mxCell>
        <mxCell id="YpXeeTf7qJ5zj5Ovl2NS-92" value="Has" style="shape=rhombus;double=1;perimeter=rhombusPerimeter;whiteSpace=wrap;html=1;align=center;" vertex="1" parent="1">
          <mxGeometry x="-290" y="-12" width="80" height="80" as="geometry" />
        </mxCell>
        <mxCell id="YpXeeTf7qJ5zj5Ovl2NS-101" style="edgeStyle=orthogonalEdgeStyle;rounded=0;orthogonalLoop=1;jettySize=auto;html=1;exitX=0.5;exitY=1;exitDx=0;exitDy=0;entryX=0;entryY=0.5;entryDx=0;entryDy=0;endArrow=none;endFill=0;shape=link;" edge="1" parent="1" source="YpXeeTf7qJ5zj5Ovl2NS-96" target="YpXeeTf7qJ5zj5Ovl2NS-99">
          <mxGeometry relative="1" as="geometry" />
        </mxCell>
        <mxCell id="YpXeeTf7qJ5zj5Ovl2NS-96" value="Has" style="shape=rhombus;double=1;perimeter=rhombusPerimeter;whiteSpace=wrap;html=1;align=center;" vertex="1" parent="1">
          <mxGeometry x="-290" y="260" width="80" height="80" as="geometry" />
        </mxCell>
        <mxCell id="CcATFbNi5NQpu170G1Sn-30" style="edgeStyle=orthogonalEdgeStyle;rounded=0;orthogonalLoop=1;jettySize=auto;html=1;exitX=0.75;exitY=1;exitDx=0;exitDy=0;endArrow=none;endFill=0;" edge="1" parent="1" source="YpXeeTf7qJ5zj5Ovl2NS-99" target="CcATFbNi5NQpu170G1Sn-28">
          <mxGeometry relative="1" as="geometry" />
        </mxCell>
        <mxCell id="CcATFbNi5NQpu170G1Sn-31" style="edgeStyle=orthogonalEdgeStyle;rounded=0;orthogonalLoop=1;jettySize=auto;html=1;exitX=0.25;exitY=1;exitDx=0;exitDy=0;endArrow=none;endFill=0;entryX=0.5;entryY=0;entryDx=0;entryDy=0;" edge="1" parent="1" source="YpXeeTf7qJ5zj5Ovl2NS-99" target="CcATFbNi5NQpu170G1Sn-61">
          <mxGeometry relative="1" as="geometry">
            <mxPoint x="-180" y="490" as="targetPoint" />
          </mxGeometry>
        </mxCell>
        <mxCell id="YpXeeTf7qJ5zj5Ovl2NS-99" value="Comment" style="shape=ext;margin=3;double=1;whiteSpace=wrap;html=1;align=center;rounded=0;" vertex="1" parent="1">
          <mxGeometry x="-150" y="370" width="100" height="40" as="geometry" />
        </mxCell>
        <mxCell id="YpXeeTf7qJ5zj5Ovl2NS-102" style="edgeStyle=orthogonalEdgeStyle;rounded=0;orthogonalLoop=1;jettySize=auto;html=1;shape=link;" edge="1" parent="1" source="YpXeeTf7qJ5zj5Ovl2NS-100" target="YpXeeTf7qJ5zj5Ovl2NS-99">
          <mxGeometry relative="1" as="geometry" />
        </mxCell>
        <mxCell id="YpXeeTf7qJ5zj5Ovl2NS-104" style="edgeStyle=orthogonalEdgeStyle;rounded=0;orthogonalLoop=1;jettySize=auto;html=1;entryX=0;entryY=0.5;entryDx=0;entryDy=0;endArrow=none;endFill=0;" edge="1" parent="1" source="YpXeeTf7qJ5zj5Ovl2NS-100" target="YpXeeTf7qJ5zj5Ovl2NS-2">
          <mxGeometry relative="1" as="geometry" />
        </mxCell>
        <mxCell id="YpXeeTf7qJ5zj5Ovl2NS-100" value="Writes" style="shape=rhombus;double=1;perimeter=rhombusPerimeter;whiteSpace=wrap;html=1;align=center;" vertex="1" parent="1">
          <mxGeometry x="-140" y="210" width="80" height="80" as="geometry" />
        </mxCell>
        <mxCell id="YpXeeTf7qJ5zj5Ovl2NS-106" style="edgeStyle=orthogonalEdgeStyle;rounded=0;orthogonalLoop=1;jettySize=auto;html=1;entryX=0;entryY=0.5;entryDx=0;entryDy=0;shape=link;" edge="1" parent="1" source="YpXeeTf7qJ5zj5Ovl2NS-105" target="YpXeeTf7qJ5zj5Ovl2NS-3">
          <mxGeometry relative="1" as="geometry" />
        </mxCell>
        <mxCell id="YpXeeTf7qJ5zj5Ovl2NS-107" style="edgeStyle=orthogonalEdgeStyle;rounded=0;orthogonalLoop=1;jettySize=auto;html=1;entryX=0;entryY=0;entryDx=0;entryDy=0;endArrow=none;endFill=0;" edge="1" parent="1" source="YpXeeTf7qJ5zj5Ovl2NS-105" target="YpXeeTf7qJ5zj5Ovl2NS-2">
          <mxGeometry relative="1" as="geometry" />
        </mxCell>
        <mxCell id="YpXeeTf7qJ5zj5Ovl2NS-105" value="Issues" style="shape=rhombus;double=1;perimeter=rhombusPerimeter;whiteSpace=wrap;html=1;align=center;" vertex="1" parent="1">
          <mxGeometry x="-40" y="20" width="80" height="80" as="geometry" />
        </mxCell>
        <mxCell id="CcATFbNi5NQpu170G1Sn-4" style="edgeStyle=orthogonalEdgeStyle;rounded=0;orthogonalLoop=1;jettySize=auto;html=1;exitX=0.5;exitY=1;exitDx=0;exitDy=0;entryX=0;entryY=0.5;entryDx=0;entryDy=0;endArrow=none;endFill=0;" edge="1" parent="1" source="CcATFbNi5NQpu170G1Sn-3" target="YpXeeTf7qJ5zj5Ovl2NS-5">
          <mxGeometry relative="1" as="geometry" />
        </mxCell>
        <mxCell id="CcATFbNi5NQpu170G1Sn-3" value="Attachment" style="ellipse;shape=doubleEllipse;whiteSpace=wrap;html=1;" vertex="1" parent="1">
          <mxGeometry x="520" y="198" width="100" height="60" as="geometry" />
        </mxCell>
        <mxCell id="CcATFbNi5NQpu170G1Sn-6" value="Post_ID" style="ellipse;whiteSpace=wrap;html=1;fontStyle=4" vertex="1" parent="1">
          <mxGeometry x="760" y="192.5" width="90" height="62.5" as="geometry" />
        </mxCell>
        <mxCell id="CcATFbNi5NQpu170G1Sn-8" value="Email" style="ellipse;whiteSpace=wrap;html=1;" vertex="1" parent="1">
          <mxGeometry x="-50" y="275" width="80" height="50" as="geometry" />
        </mxCell>
        <mxCell id="CcATFbNi5NQpu170G1Sn-10" value="Password" style="ellipse;whiteSpace=wrap;html=1;" vertex="1" parent="1">
          <mxGeometry y="350" width="80" height="50" as="geometry" />
        </mxCell>
        <mxCell id="CcATFbNi5NQpu170G1Sn-19" value="&lt;u&gt;Ticket_ID&lt;br&gt;&lt;/u&gt;" style="ellipse;whiteSpace=wrap;html=1;" vertex="1" parent="1">
          <mxGeometry x="250" y="-40" width="100" height="40" as="geometry" />
        </mxCell>
        <mxCell id="CcATFbNi5NQpu170G1Sn-21" value="Content" style="ellipse;whiteSpace=wrap;html=1;" vertex="1" parent="1">
          <mxGeometry x="250" y="-170" width="100" height="50" as="geometry" />
        </mxCell>
        <mxCell id="CcATFbNi5NQpu170G1Sn-28" value="Content" style="ellipse;whiteSpace=wrap;html=1;" vertex="1" parent="1">
          <mxGeometry x="-70" y="490" width="100" height="50" as="geometry" />
        </mxCell>
        <mxCell id="CcATFbNi5NQpu170G1Sn-32" value="&lt;u&gt;Post_ID&lt;br&gt;&lt;/u&gt;" style="ellipse;whiteSpace=wrap;html=1;" vertex="1" parent="1">
          <mxGeometry x="-475" y="133" width="80" height="50" as="geometry" />
        </mxCell>
        <mxCell id="CcATFbNi5NQpu170G1Sn-35" value="Date" style="ellipse;whiteSpace=wrap;html=1;" vertex="1" parent="1">
          <mxGeometry x="-480" y="230" width="85" height="40" as="geometry" />
        </mxCell>
        <mxCell id="CcATFbNi5NQpu170G1Sn-38" value="Keywords" style="ellipse;shape=doubleEllipse;whiteSpace=wrap;html=1;" vertex="1" parent="1">
          <mxGeometry x="-477.5" y="58" width="85" height="50" as="geometry" />
        </mxCell>
        <mxCell id="CcATFbNi5NQpu170G1Sn-44" value="Hyperlink" style="ellipse;whiteSpace=wrap;html=1;" vertex="1" parent="1">
          <mxGeometry x="-330" y="-100" width="110" height="40" as="geometry" />
        </mxCell>
        <mxCell id="CcATFbNi5NQpu170G1Sn-49" value="Topic" style="ellipse;shape=doubleEllipse;whiteSpace=wrap;html=1;" vertex="1" parent="1">
          <mxGeometry x="-570" y="-200" width="100" height="60" as="geometry" />
        </mxCell>
        <mxCell id="CcATFbNi5NQpu170G1Sn-53" value="Paper_ID" style="ellipse;whiteSpace=wrap;html=1;fontStyle=4" vertex="1" parent="1">
          <mxGeometry x="-860" y="-210" width="100" height="50" as="geometry" />
        </mxCell>
        <mxCell id="CcATFbNi5NQpu170G1Sn-55" value="Book_ID" style="ellipse;whiteSpace=wrap;html=1;fontStyle=4" vertex="1" parent="1">
          <mxGeometry x="-850" y="240" width="100" height="50" as="geometry" />
        </mxCell>
        <mxCell id="CcATFbNi5NQpu170G1Sn-57" value="Resource_ID" style="ellipse;whiteSpace=wrap;html=1;fontStyle=4" vertex="1" parent="1">
          <mxGeometry x="-405" y="-200" width="100" height="50" as="geometry" />
        </mxCell>
        <mxCell id="CcATFbNi5NQpu170G1Sn-61" value="Comment_ID" style="ellipse;whiteSpace=wrap;html=1;" vertex="1" parent="1">
          <mxGeometry x="-230" y="490" width="90" height="60" as="geometry" />
        </mxCell>
        <mxCell id="CcATFbNi5NQpu170G1Sn-62" value="" style="endArrow=none;dashed=1;html=1;dashPattern=1 3;strokeWidth=2;rounded=0;" edge="1" parent="1">
          <mxGeometry width="50" height="50" relative="1" as="geometry">
            <mxPoint x="-210" y="530" as="sourcePoint" />
            <mxPoint x="-170" y="530" as="targetPoint" />
          </mxGeometry>
        </mxCell>
        <mxCell id="CcATFbNi5NQpu170G1Sn-63" value="Rating_ID" style="ellipse;whiteSpace=wrap;html=1;" vertex="1" parent="1">
          <mxGeometry x="-1010" y="192.5" width="80" height="60" as="geometry" />
        </mxCell>
        <mxCell id="CcATFbNi5NQpu170G1Sn-64" value="" style="endArrow=none;dashed=1;html=1;dashPattern=1 3;strokeWidth=2;rounded=0;" edge="1" parent="1">
          <mxGeometry width="50" height="50" relative="1" as="geometry">
            <mxPoint x="-990" y="232.5" as="sourcePoint" />
            <mxPoint x="-950" y="232.5" as="targetPoint" />
          </mxGeometry>
        </mxCell>
      </root>
    </mxGraphModel>
  </diagram>
</mxfile>
